<svg xmlns="http://www.w3.org/2000/svg" width="800" height="320" viewBox="0 0 800 320">
  <defs>
    <linearGradient id="bg" x1="0%" y1="0%" x2="100%" y2="100%">
      <stop offset="0%" style="stop-color:#fafbfc"/>
      <stop offset="50%" style="stop-color:#ffffff"/>
      <stop offset="100%" style="stop-color:#f6f8fa"/>
    </linearGradient>
    <linearGradient id="accent" x1="0%" y1="0%" x2="100%" y2="0%">
      <stop offset="0%" style="stop-color:#00b33c"/>
      <stop offset="100%" style="stop-color:#009930"/>
    </linearGradient>
    <linearGradient id="accent2" x1="0%" y1="0%" x2="100%" y2="0%">
      <stop offset="0%" style="stop-color:#00b33c;stop-opacity:0.08"/>
      <stop offset="100%" style="stop-color:#009930;stop-opacity:0.08"/>
    </linearGradient>
  </defs>

  <!-- Background -->
  <rect width="800" height="320" fill="url(#bg)"/>

  <!-- Subtle grid -->
  <g opacity="0.04">
    <line x1="0" y1="40" x2="800" y2="40" stroke="#0d1117" stroke-width="1"/>
    <line x1="0" y1="80" x2="800" y2="80" stroke="#0d1117" stroke-width="1"/>
    <line x1="0" y1="120" x2="800" y2="120" stroke="#0d1117" stroke-width="1"/>
    <line x1="0" y1="160" x2="800" y2="160" stroke="#0d1117" stroke-width="1"/>
    <line x1="0" y1="200" x2="800" y2="200" stroke="#0d1117" stroke-width="1"/>
    <line x1="0" y1="240" x2="800" y2="240" stroke="#0d1117" stroke-width="1"/>
    <line x1="0" y1="280" x2="800" y2="280" stroke="#0d1117" stroke-width="1"/>
    <line x1="100" y1="0" x2="100" y2="320" stroke="#0d1117" stroke-width="1"/>
    <line x1="200" y1="0" x2="200" y2="320" stroke="#0d1117" stroke-width="1"/>
    <line x1="300" y1="0" x2="300" y2="320" stroke="#0d1117" stroke-width="1"/>
    <line x1="400" y1="0" x2="400" y2="320" stroke="#0d1117" stroke-width="1"/>
    <line x1="500" y1="0" x2="500" y2="320" stroke="#0d1117" stroke-width="1"/>
    <line x1="600" y1="0" x2="600" y2="320" stroke="#0d1117" stroke-width="1"/>
    <line x1="700" y1="0" x2="700" y2="320" stroke="#0d1117" stroke-width="1"/>
  </g>

  <!-- CyberStrike Logo (scaled to fit ~80px) -->
  <g transform="translate(365, 15) scale(0.157)" fill="#0d1117">
    <path opacity="1" d="m243.55 92c-0.3 0.55-2.69 1-5.3 1-2.61 0-8.8 0.72-13.75 1.59-4.95 0.88-12.82 2.69-17.5 4.03-4.68 1.35-10.3 3.3-12.5 4.33-2.2 1.04-7.38 3.34-11.5 5.1-4.13 1.77-7.95 3.77-8.5 4.45-0.55 0.69-2.58 1.91-4.5 2.73-1.93 0.82-7.55 4.61-12.5 8.42-4.95 3.82-10.76 8.5-12.91 10.4-2.16 1.9-5.08 4.63-6.5 6.08-1.43 1.45-4.51 4.82-6.85 7.5-2.34 2.68-6.59 8.02-9.44 11.87-2.85 3.85-6.17 9.03-7.38 11.5-1.21 2.47-2.86 5.18-3.67 6-0.81 0.82-2.25 3.3-3.21 5.5-0.95 2.2-3.75 8.95-6.22 15-2.7 6.62-5.45 15.78-6.9 23-1.33 6.6-2.3 12.08-2.17 12.18 0.14 0.1 4.75-0.46 10.25-1.23 5.5-0.78 10.56-1.42 11.25-1.43 0.69-0.01 1.54-1.48 1.89-3.27 0.35-1.79 1.01-3.93 1.47-4.75 0.46-0.82 1.76-5.1 2.88-9.5 1.13-4.4 4.65-13.18 7.82-19.5 3.17-6.32 7.73-14.2 10.14-17.5 2.4-3.3 6.89-8.9 9.96-12.44 3.07-3.54 7.61-8.34 10.09-10.66 2.47-2.32 7.87-6.88 12-10.13 4.12-3.26 12.22-8.43 18-11.49 5.77-3.07 14.32-6.79 19-8.28 4.67-1.48 9.4-3.06 10.5-3.51 1.1-0.44 2.9-1.1 4-1.45 1.1-0.35 6.39-1.29 11.75-2.09 5.36-0.8 15.26-1.44 22-1.43 6.74 0.01 16.3 0.68 21.25 1.5 4.95 0.82 9.9 1.74 11 2.04 1.1 0.31 2.9 0.95 4 1.41 1.1 0.47 6.05 2.08 11 3.57 4.95 1.5 11.02 3.86 13.5 5.24 2.48 1.39 6.98 3.84 10 5.45 3.02 1.62 8.65 5.3 12.5 8.18 3.85 2.88 11.14 9.48 16.21 14.67 5.06 5.18 11.27 12.12 13.79 15.42 2.52 3.3 4.55 6.45 4.52 7-0.03 0.55 0.77 1.9 1.78 3 1.02 1.1 4.16 6.72 6.98 12.5 2.82 5.78 6.02 13.2 7.1 16.5 1.09 3.3 2.94 10.5 4.13 16 1.18 5.5 2.57 13.6 3.07 18 0.5 4.4 0.63 12.95 0.29 19-0.34 6.05-0.95 11.45-1.36 12-0.4 0.55-1.04 3.02-1.42 5.5-0.38 2.48-1.62 8.32-2.75 13-1.14 4.68-3.82 12.21-5.95 16.75-2.14 4.54-3.88 8.59-3.87 9 0.01 0.41-2.91 5.14-6.5 10.5-3.59 5.36-6.51 9.86-6.49 10 0.02 0.14-1.45 1.99-3.25 4.12-1.8 2.14-6.74 7.31-10.96 11.5-4.23 4.2-10.08 9.49-13 11.76-2.93 2.27-8.47 6.17-12.32 8.67-3.85 2.49-10.38 5.93-14.5 7.65-4.13 1.71-8.4 3.61-9.5 4.22-1.1 0.61-4.02 1.72-6.5 2.45-2.48 0.74-9.23 2.34-15 3.56-8.75 1.85-13.59 2.22-29 2.18-15.3-0.04-20.23-0.43-28.5-2.26-5.5-1.22-11.57-2.7-13.5-3.28-1.93-0.59-5.3-1.87-7.5-2.84-2.2-0.97-7.15-3.19-11-4.93-3.85-1.74-9.36-4.72-12.25-6.61-2.89-1.89-5.59-3.43-6-3.41-0.41 0.02-2.33-1.47-4.25-3.31-1.93-1.83-4.25-3.76-5.16-4.28-0.91-0.52-4.51-3.68-8-7.03-3.49-3.35-8.03-7.97-10.09-10.25-2.06-2.29-6.13-7.65-9.04-11.91-2.91-4.26-6.29-9.44-7.5-11.5-1.22-2.06-2.21-4.2-2.21-4.75 0-0.55-1.09-2.69-2.43-4.75-1.33-2.06-3.85-8.25-5.59-13.75-1.75-5.5-3.52-10.9-3.94-12-0.43-1.1-1.18-3.35-1.68-5-0.83-2.76-1.41-3.08-7.38-4.06-3.56-0.58-7.16-1.33-7.98-1.67-0.83-0.34-2.96-0.77-4.74-0.95-2.09-0.21-3.24 0.12-3.25 0.93-0.01 0.69 0.92 5.64 2.05 11 1.13 5.36 2.53 11.32 3.12 13.25 0.58 1.93 1.64 4.85 2.36 6.5 0.72 1.65 3.02 7.05 5.11 12 2.09 4.95 6.27 13.05 9.3 18 3.03 4.95 6.53 10.13 7.78 11.5 1.25 1.37 2.28 3.06 2.27 3.75 0 0.69 4.61 6.04 10.25 11.9 5.64 5.86 12.65 12.5 15.59 14.75 2.93 2.26 9.01 6.7 13.5 9.89 4.49 3.18 11.53 7.4 15.66 9.37 4.12 1.97 7.72 3.93 8 4.34 0.27 0.42 7.25 3.02 15.5 5.77 8.25 2.75 19.27 5.73 24.5 6.62 5.22 0.89 12.09 1.62 15.25 1.62 3.17-0.01 5.75 0.44 5.75 0.99 0 0.56 2.83 1 6.5 1 3.57 0 6.73-0.45 7-1 0.27-0.55 3.09-1 6.25-1 3.16 0 9.8-0.7 14.75-1.57 4.95-0.86 9.9-1.94 11-2.4 1.1-0.46 6.73-2.27 12.5-4.02 5.77-1.76 15.34-5.63 21.25-8.6 5.91-2.98 13.9-7.66 17.75-10.41 3.85-2.75 7.23-5 7.5-5 0.27 0 2.64-2.03 5.25-4.51 2.61-2.47 5.09-4.5 5.5-4.5 0.41 0.01 3.89-3.25 7.72-7.24 3.84-3.99 8-8.39 9.25-9.79 1.26-1.4 5.26-6.8 8.89-12 3.64-5.2 7.86-11.94 9.39-14.96 1.52-3.02 3.09-5.73 3.48-6 0.39-0.27 2.08-4.1 3.75-8.5 1.66-4.4 3.59-9.8 4.28-12 0.69-2.2 1.61-4.45 2.05-5 0.44-0.55 1.54-4.6 2.45-9 0.91-4.4 2.21-11.82 2.88-16.5l1.21-8.5 11.9-0.56c9.41 12.48 10.3 13.19 12.5 12.6 1.37-0.36 4.3-1.51 6.5-2.56 2.2-1.04 9.62-3.73 16.5-5.96 6.87-2.23 13.62-4.65 15-5.38 1.37-0.74 7.67-3.06 14-5.16 6.32-2.1 12.4-4.35 13.5-4.98 1.84-1.07 1.69-1.26-2-2.44-2.2-0.71-5.8-2.12-8-3.14-2.2-1.03-9.63-3.73-16.5-6-6.88-2.28-12.95-4.48-13.5-4.9-0.55-0.41-6.85-2.68-14-5.03-7.15-2.36-13.45-4.46-14-4.68-0.55-0.22-1.6 0.86-2.34 2.4-0.74 1.53-2.01 3.47-2.82 4.29-0.82 0.82-2.27 2.85-3.23 4.5-1.5 2.57-2.52 3.09-7.18 3.64-2.99 0.35-5.77 0.46-6.18 0.25-0.41-0.22-0.75-2.42-0.75-4.89 0-2.47-1.13-10.35-2.5-17.5-1.38-7.15-2.95-13.79-3.5-14.75-0.55-0.96-2.51-6.03-4.35-11.25-1.85-5.22-5.37-13.1-7.84-17.5-2.46-4.4-4.72-8.68-5.02-9.5-0.3-0.82-3.38-5.32-6.85-10-3.47-4.68-10.61-12.94-15.87-18.37-5.26-5.43-13.17-12.62-17.57-15.98-4.4-3.36-12.73-8.86-18.5-12.22-5.77-3.36-11.63-6.46-13-6.89-1.38-0.43-4.75-1.81-7.5-3.07-2.75-1.26-7.25-3.05-10-3.96-2.75-0.92-9.05-2.54-14-3.61-4.95-1.06-12.75-2.22-17.33-2.57-4.58-0.34-8.3-1.01-8.25-1.48 0.04-0.47-4.85-0.85-10.87-0.85-6.27 0-11.19 0.43-11.5 1z"/>
    <path opacity="1" d="m326.5 190.55c-1.65 0.85-9.3 3.41-17 5.69-7.7 2.29-14.23 4.44-14.5 4.79-0.27 0.35-2.3 1.12-4.5 1.7-2.2 0.58-9.4 2.47-16 4.19-6.6 1.73-13.8 3.79-16 4.58-2.2 0.79-10.75 2.83-19 4.53-8.25 1.7-15.68 3.45-16.5 3.89-0.82 0.45-7.8 2-15.5 3.45-7.7 1.44-19.18 3.55-25.5 4.68-6.32 1.13-15.1 2.7-19.5 3.48-4.4 0.79-18.35 2.81-31 4.5-12.65 1.68-23.9 3.44-25 3.91-1.1 0.47-6.05 1.37-11 2-4.95 0.63-15.53 2.03-23.5 3.11-7.97 1.08-18.55 2.45-23.5 3.05-4.95 0.6-9.9 1.47-11 1.94-1.1 0.47-6.72 1.52-12.5 2.34-5.78 0.82-13.2 1.83-16.5 2.24l-6 0.74c6.2 1.19 10.47 1.99 13.5 2.54 3.02 0.56 12.7 1.94 21.5 3.08 8.8 1.14 21.17 2.76 27.5 3.59 6.33 0.84 12.4 1.91 13.5 2.4 1.1 0.48 4.47 1.11 7.5 1.39 3.03 0.28 16.3 1.93 29.5 3.67 13.2 1.74 26.47 3.56 29.5 4.05 3.03 0.49 12.7 2 21.5 3.35 8.8 1.36 17.87 2.6 20.17 2.77l4.16 0.3 22.9-27c-3.65-6.2-4.71-8.56-4.72-9.25 0-0.69 1.68-1.51 3.74-1.83 2.06-0.32 10.72-1.93 19.25-3.57 8.53-1.65 15.95-3.36 16.5-3.81 0.55-0.44 3.36-1.31 6.25-1.92 2.89-0.62 5.48-1.12 5.75-1.12 0.27 0 0.5 0.45 0.5 1 0 0.55-3.26 4.76-7.25 9.36-3.99 4.59-12.78 14.83-19.54 22.75-6.76 7.91-13.51 15.73-15 17.37-1.49 1.64-3.39 3.95-4.21 5.14-0.82 1.19-6.91 8.4-13.52 16.02-6.62 7.62-14.27 16.47-17 19.67l-4.98 5.8c9.3-3.33 12.45-4.66 13-5.1 0.55-0.45 6.62-2.73 13.5-5.08 6.87-2.35 12.72-4.56 13-4.91 0.28-0.35 7.03-2.59 15-4.97 7.97-2.39 15.4-4.79 16.5-5.35 1.1-0.55 9.2-2.98 18-5.39 8.8-2.42 20.27-5.47 25.5-6.79 5.23-1.31 13.55-3.33 18.5-4.49 4.95-1.16 12.82-3 17.5-4.09 4.68-1.09 14.8-3.11 22.5-4.5 7.7-1.39 14.9-2.91 16-3.39 1.1-0.48 5.37-1.39 9.5-2.02 4.12-0.64 7.73-1.39 8-1.67 0.27-0.29 0.61-5.21 0.75-10.94 0.19-7.81-0.06-10.42-1-10.41-0.69 0-10.93 1.59-22.75 3.53-11.82 1.93-22.4 3.93-23.5 4.44-1.1 0.52-11.45 2.81-23 5.1-11.55 2.29-21.68 4.55-22.5 5.01-0.82 0.46-6.23 2.04-12 3.5-5.77 1.47-12.3 3.03-14.5 3.48-2.2 0.44-5.35 1.47-7 2.29-1.65 0.81-3.85 1.63-4.9 1.81-1.04 0.18-2.05-0.23-2.25-0.92-0.19-0.69 2.91-4.97 6.9-9.51 3.99-4.54 11.32-12.98 16.29-18.75 4.97-5.77 10.82-12.7 13-15.41 2.18-2.7 5.08-6.19 6.46-7.74 1.37-1.56 3.92-4.52 5.66-6.59 1.74-2.06 8.83-10.39 15.75-18.5 6.91-8.11 12.47-14.75 12.33-14.74-0.13 0-1.59 0.7-3.24 1.54z"/>
  </g>

  <!-- Title -->
  <text x="400" y="148" text-anchor="middle" fill="#0d1117" font-family="system-ui, -apple-system, 'Segoe UI', sans-serif" font-size="30" font-weight="700" letter-spacing="-0.5">CyberStrike</text>

  <!-- Subtitle -->
  <text x="400" y="174" text-anchor="middle" fill="#57606a" font-family="system-ui, -apple-system, 'Segoe UI', sans-serif" font-size="14" font-weight="400">Autonomous Offensive Security Agent</text>

  <!-- Accent line -->
  <rect x="350" y="186" width="100" height="2" rx="1" fill="url(#accent)" opacity="0.6"/>

  <!-- Stats pills -->
  <g transform="translate(400, 210)" text-anchor="middle">
    <rect x="-228" y="-14" width="100" height="28" rx="14" fill="url(#accent2)" stroke="#00b33c" stroke-width="1" opacity="0.8"/>
    <text x="-178" y="5" fill="#00803c" font-family="system-ui, -apple-system, sans-serif" font-size="12" font-weight="600">13+ Agents</text>

    <rect x="-116" y="-14" width="105" height="28" rx="14" fill="url(#accent2)" stroke="#00b33c" stroke-width="1" opacity="0.8"/>
    <text x="-63" y="5" fill="#00803c" font-family="system-ui, -apple-system, sans-serif" font-size="12" font-weight="600">120+ OWASP</text>

    <rect x="1" y="-14" width="118" height="28" rx="14" fill="url(#accent2)" stroke="#00b33c" stroke-width="1" opacity="0.8"/>
    <text x="60" y="5" fill="#00803c" font-family="system-ui, -apple-system, sans-serif" font-size="12" font-weight="600">150+ Providers</text>

    <rect x="131" y="-14" width="105" height="28" rx="14" fill="url(#accent2)" stroke="#00b33c" stroke-width="1" opacity="0.8"/>
    <text x="183" y="5" fill="#00803c" font-family="system-ui, -apple-system, sans-serif" font-size="12" font-weight="600">176+ MCP Tools</text>
  </g>

  <!-- Feature keywords -->
  <text x="400" y="270" text-anchor="middle" fill="#8b949e" font-family="system-ui, -apple-system, sans-serif" font-size="11" font-weight="400" letter-spacing="0.5">
    Pentest  ·  OWASP WSTG  ·  Bug Bounty  ·  Red Team  ·  MCP  ·  Bolt  ·  Multi-LLM
  </text>

  <!-- Top border accent -->
  <rect x="0" y="0" width="800" height="3" fill="url(#accent)"/>

  <!-- Bottom border accent -->
  <rect x="0" y="317" width="800" height="3" fill="url(#accent)" opacity="0.3"/>
</svg>
